<?xml version="1.0" encoding="UTF-8" standalone="no"?>
<svg
   xmlns:dc="http://purl.org/dc/elements/1.1/"
   xmlns:cc="http://creativecommons.org/ns#"
   xmlns:rdf="http://www.w3.org/1999/02/22-rdf-syntax-ns#"
   xmlns:svg="http://www.w3.org/2000/svg"
   xmlns="http://www.w3.org/2000/svg"
   xmlns:sodipodi="http://sodipodi.sourceforge.net/DTD/sodipodi-0.dtd"
   xmlns:inkscape="http://www.inkscape.org/namespaces/inkscape"
   viewBox="0 0 1253.1779 377.95274"
   width="331.56998mm"
   height="100mm"
   version="1.1"
   id="svg36"
   sodipodi:docname="gazo.svg"
   inkscape:version="1.0.2 (e86c870879, 2021-01-15)">
  <metadata
     id="metadata42">
    <rdf:RDF>
      <cc:Work
         rdf:about="">
        <dc:format>image/svg+xml</dc:format>
        <dc:type
           rdf:resource="http://purl.org/dc/dcmitype/StillImage" />
        <dc:title></dc:title>
      </cc:Work>
    </rdf:RDF>
  </metadata>
  <defs
     id="defs40" />
  <sodipodi:namedview
     pagecolor="#ffffff"
     bordercolor="#666666"
     borderopacity="1"
     objecttolerance="10"
     gridtolerance="10"
     guidetolerance="10"
     inkscape:pageopacity="0"
     inkscape:pageshadow="2"
     inkscape:window-width="1920"
     inkscape:window-height="1016"
     id="namedview38"
     showgrid="false"
     units="mm"
     fit-margin-top="0"
     fit-margin-left="0"
     fit-margin-right="0"
     fit-margin-bottom="0"
     inkscape:zoom="0.92804063"
     inkscape:cx="511.65145"
     inkscape:cy="188.97638"
     inkscape:window-x="0"
     inkscape:window-y="0"
     inkscape:window-maximized="1"
     inkscape:current-layer="g34" />
  <g
     transform="matrix(0.9811,0,0,0.9811,21.664682,116.5545)"
     id="g34">
    <g
       transform="matrix(1.0612269,0,0,1.0612264,157.3656,159.30517)"
       id="g32">
      <path
         fill-mode="evenodd"
         fill="#000000"
         d="m 302.213,-262.014 6.294,1.535 0.204,0.133 0.297,0.089 4.336,2.877 0.131,0.245 0.27,0.135 2.682,3.592 0.139,0.415 0.167,0.291 0.845,4.824 0.027,0.298 -0.011,0.188 -0.687,6.085 -0.037,0.073 -0.06,0.327 -2.751,7.333 -0.059,0.076 -0.029,0.117 -4.606,8.673 -0.089,0.094 -0.032,0.099 -6.667,9.291 -0.07,0.035 -0.037,0.098 -9.24,10.526 -0.01,0.004 -0.005,0.012 -10.793,11.959 -0.066,0.029 -0.029,0.068 -13.366,12.781 -0.042,0.017 -0.017,0.038 -15.234,13.381 -0.012,0.005 -0.005,0.01 -16.77,14.419 -0.053,0.019 -0.019,0.04 -17.805,13.894 -0.038,0.013 -0.012,0.025 -19.657,14.408 -0.006,0.002 -0.002,0.004 -19.863,14.511 -0.035,0.012 -0.011,0.021 -19.965,13.79 -0.001,10e-4 v 0 l -19.972,13.884 -0.022,0.007 -0.018,0.02 -12.851,8.522 0.69,1.509 4.485,8.638 4.861,7.676 5.743,7.253 5.155,5.059 7,-2.92 13.269,-7.171 0.002,-10e-4 13.633,-7.599 12.497,-7.798 v -0.001 l 11.614,-7.489 v 0 l 9.561,-6.271 0.011,-0.003 0.009,-0.01 7.623,-4.917 v 0 l 5.639,-3.78 0.04,-0.012 0.034,-0.035 3.812,-2.343 0.241,-0.069 0.169,-0.124 2.052,-0.694 0.638,-0.107 1.114,0.349 0.129,0.166 0.136,0.056 0.104,0.251 0.34,0.436 0.077,0.201 0.129,0.696 -0.297,1.029 -1.363,2.157 -0.121,0.114 -0.036,0.097 -3.511,4.113 -0.039,0.018 -0.018,0.046 -6.083,6.479 -0.024,0.01 -0.01,0.025 -8.742,8.828 -10.074,10.69 -0.015,0.007 -0.006,0.016 -12.457,12.765 -0.008,0.004 -0.003,0.007 -13.383,13.486 v 0 0 l -2.91,2.93 2.048,0.328 9.537,0.089 9.635,-1.026 10.265,-2.73 10.525,-4.061 10.984,-5.505 11.521,-6.64 11.25,-7.569 11.383,-8.116 10.894,-8.104 0.012,-0.004 0.004,-0.008 10.392,-7.614 0.015,-0.005 0.005,-0.01 9.884,-7.09 0.004,-0.001 0.001,-0.002 8.745,-6.276 0.043,-0.014 0.04,-0.043 8.441,-5.441 0.045,-0.014 0.037,-0.037 7.615,-4.412 0.065,-0.018 0.047,-0.042 6.377,-3.176 0.081,-0.019 0.048,-0.04 5.449,-2.249 0.217,-0.044 0.085,-0.053 4.831,-1.108 0.308,-0.035 0.023,-0.011 4.114,-0.194 0.089,-0.002 0.466,0.061 3.51,0.941 0.162,0.109 0.266,0.072 2.994,1.755 0.136,0.138 0.115,0.042 0.593,0.51 2.724,0.75 0.096,0.065 0.186,0.043 3.113,1.517 0.11,0.099 0.119,0.038 2.599,1.828 0.068,0.132 0.171,0.072 2.195,2.231 0.054,0.132 0.104,0.052 1.765,2.349 0.035,0.104 0.101,0.104 1.148,2.038 0.004,0.015 0.009,0.01 1.128,2.05 0.055,0.212 0.092,0.128 0.522,1.63 0.01,0.062 0.015,0.022 0.397,1.431 0.072,0.513 v 0.019 l -0.012,1.133 -0.015,0.035 -0.239,0.882 -0.535,0.917 v 0 h -10e-4 l -0.003,0.006 -0.657,0.652 -0.005,0.001 -0.004,0.003 -0.511,0.294 -0.916,0.247 -0.059,-10e-4 -0.722,-0.023 -1.231,-0.546 -0.055,-0.136 -0.104,-0.053 -0.572,-0.781 -1.183,-1.397 -0.038,-0.104 -0.124,-0.12 -1.128,-1.845 v -10e-4 l -1.407,-2.21 -1.719,-2.426 -0.018,-0.058 -0.054,-0.053 -1.704,-2.805 -1.837,-2.418 -2.233,-2.33 -1.867,-1.58 -3.536,-0.638 -4.269,0.075 -4.865,0.672 -5.115,1.293 -5.464,1.809 -5.538,2.216 -3.281,1.726 -1.551,0.904 -6.957,4.508 -4.393,3.691 -4.757,4.757 -4.637,5.243 -4.039,5.957 -3.318,5.53 -2.491,5.908 -1.808,5.829 -1.183,5.574 -0.283,5.397 0.602,4.827 0.992,4.41 1.641,3.832 2.183,3.209 2.751,2.546 3.224,2.073 3.724,1.325 3.871,0.763 4.256,0.171 4.714,-0.6 4.721,-1.094 4.667,-1.899 4.846,-2.287 4.677,-3.37 4.587,-3.69 4.015,-4.483 4.055,-4.949 3.755,-5.522 3.069,-5.453 2.638,-5.2 1.721,-5.095 1.321,-4.79 0.617,-4.463 0.211,-3.99 -0.098,-3.613 -0.266,-1.284 -0.954,-0.727 -0.073,-0.148 -0.158,-0.074 -1.543,-1.851 -0.014,-0.04 -0.029,-0.014 -1.242,-1.637 -0.062,-0.183 -0.14,-0.179 -0.511,-1.328 -0.068,-0.361 -0.028,-0.058 -0.115,-1.435 -0.005,-0.122 0.06,-0.415 0.095,-0.323 0.528,-0.756 0.061,-0.021 0.02,-0.036 0.496,-0.325 0.831,-0.249 0.477,0.077 0.937,0.312 0.472,0.349 0.164,0.074 0.728,0.814 0.055,0.142 0.092,0.05 0.923,1.436 0.046,0.156 0.095,0.12 0.717,1.843 0.018,0.095 0.028,0.041 0.718,2.46 0.015,0.099 0.017,0.029 0.138,0.665 0.054,0.042 2.651,1.23 2.827,0.865 3.302,0.669 3.918,0.087 4.437,-0.307 3.997,-0.975 4.313,-1.718 0.019,-0.004 0.009,-0.007 4.771,-1.828 5.063,-2.544 h 0.001 l 4.692,-2.449 4.684,-2.763 0.005,-0.001 0.001,-0.002 4.47,-2.641 4.053,-2.939 0.005,-0.002 0.002,-0.003 3.701,-2.673 0.106,-0.035 0.031,-0.054 3.37,-1.941 2.534,-1.621 0.148,-0.044 0.114,-0.092 2.564,-1.025 0.237,-0.047 0.075,-0.043 2.258,-0.399 0.273,-0.025 0.201,0.014 1.552,0.206 0.12,0.065 0.36,0.086 1.445,0.735 0.437,0.405 0.086,0.043 1.13,1.54 0.049,0.15 0.119,0.142 0.809,1.848 0.025,0.117 0.04,0.057 0.717,2.357 0.032,0.21 0.024,0.044 0.411,3.184 0.002,0.03 0.002,0.004 0.411,3.699 0.01,0.172 -0.001,0.037 -0.103,4.12 -0.003,0.007 -0.015,0.19 -0.711,4.437 -0.019,0.035 -0.019,0.133 -1.329,4.647 -0.01,0.014 -0.006,0.034 -1.639,4.956 -0.011,0.014 -0.005,0.028 -1.845,4.956 -0.041,0.053 -0.02,0.085 -2.465,4.956 -0.03,0.033 -0.011,0.043 -2.681,4.64 -0.029,0.017 -0.018,0.057 -2.876,4.336 -0.02,0.011 -0.011,0.034 -2.979,4.129 -0.024,0.012 -0.012,0.035 -3.082,3.922 -0.071,0.035 -0.035,0.087 -3.294,3.397 -0.01,0.004 -0.004,0.01 -2.977,2.994 -0.088,0.036 -0.036,0.076 -2.777,2.262 -0.039,0.014 -0.014,0.028 -1.802,1.352 0.51,-0.04 0.012,-0.001 h 0.001 l 2.467,-0.183 0.116,-0.004 h 0.013 l 2.78,0.023 0.001,0.001 0.144,0.008 2.991,0.321 0.034,0.017 0.191,0.026 2.684,0.734 0.071,0.049 0.145,0.031 2.685,1.24 0.101,0.088 0.112,0.035 2.373,1.65 0.07,0.135 0.168,0.074 2.042,2.228 7.918,-5.43 h 10e-4 l 12.743,-8.955 0.006,-0.002 0.002,-0.003 5.437,-3.806 v -4.56 l 0.023,-0.267 0.916,-5.261 0.029,-0.05 0.028,-0.17 1.867,-5.566 0.046,-0.062 0.025,-0.108 2.783,-5.774 0.05,-0.056 0.021,-0.071 3.719,-6.075 0.054,-0.029 0.031,-0.094 4.636,-6.077 0.058,-0.029 0.03,-0.076 5.671,-6.17 0.065,-0.028 0.028,-0.064 6.072,-5.558 0.041,-0.016 0.015,-0.033 6.8,-5.651 0.092,-0.033 0.032,-0.06 7.001,-4.723 0.054,-0.016 0.016,-0.028 6.994,-4.217 0.005,-0.001 10e-4,-0.003 6.479,-3.908 0.083,-0.023 0.063,-0.055 6.374,-2.982 0.062,-0.014 0.035,-0.028 6.06,-2.374 0.049,-0.01 0.023,-0.017 5.133,-1.758 0.229,-0.039 0.057,-0.031 4.313,-0.628 0.035,-0.002 0.005,-0.003 3.388,-0.422 0.2,-0.013 0.275,0.024 2.175,0.391 0.261,0.152 0.378,0.123 1.254,0.911 0.03,0.059 0.082,0.031 0.529,0.993 0.228,1.739 0.015,0.219 -0.055,0.42 -0.609,2.279 -0.095,0.141 -0.063,0.237 -1.538,2.69 -0.105,0.106 -0.034,0.097 -2.885,3.607 -0.04,0.019 -0.019,0.05 -3.802,4.229 -0.068,0.031 -0.03,0.07 -4.721,4.42 0.006,1.051 v 0.01 l -10e-4,0.049 -0.092,2.885 -0.005,0.012 -0.02,0.221 -0.608,3.306 -0.004,0.008 -0.003,0.026 -0.814,3.822 -0.035,0.057 -0.028,0.157 -1.168,3.141 0.056,0.141 1.17,1.505 1.627,1.027 1.894,0.689 2.363,-0.011 2.924,-0.293 2.816,-1.138 3.406,-1.917 h 0.002 v -10e-4 l 3.731,-2.118 3.604,-2.703 4.958,-4.134 3.546,-3.748 0.007,-0.003 0.003,-0.007 2.866,-2.969 1.942,-2.146 0.139,-0.062 0.06,-0.119 1.644,-1.233 0.29,-0.098 0.238,-0.15 0.914,-0.215 0.336,-0.04 1.009,0.418 0.023,0.056 0.051,0.023 0.522,0.609 0.348,0.938 -0.036,0.32 -0.403,1.762 -0.028,0.046 -0.022,0.12 -1.021,2.793 -0.014,0.019 -0.007,0.033 -1.64,3.926 -10e-4,10e-4 -2.154,5.057 -0.001,0.001 -2.549,5.944 -2.357,6.252 -0.002,0.002 v 0.002 l -2.566,6.602 -0.007,0.009 -0.003,0.015 -2.563,6.151 -1.934,5.328 -10e-4,10e-4 -1.764,4.741 -0.004,0.005 -10e-4,0.007 -1.651,4.231 -0.009,0.011 -0.003,0.019 -1.295,3.06 -0.035,0.156 2.18,-3.052 3.392,-5.221 0.018,-0.01 0.01,-0.03 4.223,-5.975 v 0 l 5.046,-7.106 0.016,-0.008 0.009,-0.025 5.252,-6.9 0.03,-0.015 0.015,-0.04 5.251,-6.179 0.03,-0.013 0.014,-0.035 4.83,-5.156 0.005,-0.002 0.002,-0.006 4.119,-4.324 0.027,-0.011 0.011,-0.028 3.397,-3.294 0.06,-0.024 0.023,-0.05 2.873,-2.375 0.074,-0.026 0.025,-0.049 1.945,-1.345 0.195,-0.061 0.16,-0.119 1.53,-0.522 0.475,-0.08 0.691,0.177 0.533,0.292 0.082,0.139 0.23,0.094 0.439,1.011 0.023,1.027 0.001,0.036 -0.025,0.271 -0.482,2.59 -0.062,0.104 -0.059,0.263 -1.619,3.392 -1.924,4.413 -0.015,0.018 -0.006,0.027 -2.547,5.275 -0.005,0.005 -0.002,0.007 -3.061,6.099 v 0 l -2.728,5.583 -2.324,5.994 -1.743,4.99 -1.439,4.59 -0.92,3.188 -0.16,0.828 0.98,-1.028 2.292,-2.99 2.869,-4.283 0.013,-0.007 0.007,-0.021 3.297,-4.637 0.019,-0.01 0.01,-0.029 3.718,-4.835 0.036,-0.017 0.018,-0.048 4.222,-4.84 0.002,-0.001 10e-4,-0.003 4.433,-5.034 3.917,-4.517 0.002,-0.001 0.001,-0.003 3.51,-4.009 0.089,-0.04 0.04,-0.088 3.475,-3.052 2.757,-2.74 0.129,-0.053 0.05,-0.097 2.775,-1.953 0.093,-0.03 0.026,-0.046 2.092,-1.182 1.16,-0.87 0.825,-0.277 h 0.823 l 0.967,0.401 0.103,0.249 0.143,0.086 0.316,0.605 0.16,0.645 -0.025,0.261 -0.299,1.555 -0.019,0.032 -0.016,0.105 -0.701,2.282 -0.009,0.013 -0.005,0.027 -1.01,2.9 h -10e-4 l -1.207,3.595 -0.001,0.001 -1.422,4.135 -10e-4,10e-4 -0.001,0.002 -1.834,5.166 -10e-4,10e-4 -1.73,4.818 -1.605,5.055 -1.107,4.931 -0.682,4.362 -0.012,4.028 0.283,3.008 0.999,2.573 0.992,1.67 1.071,0.736 1.847,0.231 2.362,-0.525 3.241,-1.526 3.374,-2.296 3.141,-2.309 -0.685,-1.601 -0.09,-0.433 -0.033,-0.07 -0.309,-4.319 -0.004,-0.114 0.003,-0.094 0.297,-4.843 0.01,-0.021 0.023,-0.209 1.237,-5.672 0.038,-0.061 0.03,-0.161 2.258,-5.78 0.068,-0.085 0.032,-0.12 3.411,-5.869 0.034,-0.019 0.02,-0.065 3.709,-5.462 0.081,-0.042 0.045,-0.117 4.436,-4.935 0.057,-0.025 0.026,-0.059 4.536,-4.315 0.078,-0.031 0.03,-0.062 4.431,-3.489 0.101,-0.035 0.033,-0.059 4.42,-2.776 0.089,-0.026 0.023,-0.038 3.709,-1.932 0.267,-0.066 0.121,-0.074 2.875,-0.604 0.066,-0.007 0.013,-0.008 1.847,-0.296 0.24,-0.02 0.702,0.18 1.34,0.735 0.043,0.073 0.139,0.047 0.514,0.774 0.41,1.534 0.051,0.383 -0.012,0.188 -0.31,2.375 -0.026,0.048 -0.033,0.21 -0.919,2.793 -0.04,0.055 -0.022,0.098 -1.743,3.72 -0.034,0.039 -0.014,0.052 -2.567,4.542 -0.037,0.022 -0.022,0.073 -3.494,5.159 v 0 l -3.902,5.77 -0.046,0.025 -0.025,0.071 -4.823,5.989 -0.008,0.004 -0.004,0.011 -5.046,6.076 -0.02,0.009 -0.009,0.024 -4.831,5.465 -0.061,0.028 -0.027,0.064 -5.155,4.932 -0.031,0.013 -0.012,0.027 -3.646,3.232 1.186,1.383 2.24,0.996 3.005,0.265 3.96,-0.943 4.895,-2.111 5.436,-2.63 6.147,-3.944 6.519,-4.904 6.941,-5.527 7.234,-6.434 7.161,-7.178 7.452,-7.553 7.052,-8.892 0.004,-0.002 0.001,-0.004 7.62,-9.455 7.789,-10.025 6.992,-10.446 0.013,-0.007 0.007,-0.023 7.207,-10.151 1.876,-2.918 4.762,-7.849 7.116,-12.228 0.009,-0.005 0.005,-0.018 7.219,-11.631 v 0 l 6.599,-10.598 v 0 l 5.968,-9.673 0.005,-0.003 0.002,-0.008 1.03,-1.61 2.368,-4.117 0.014,-0.008 0.009,-0.03 3.923,-6.253 3.407,-5.84 0.014,-0.008 0.008,-0.027 2.802,-4.419 0.013,-0.007 0.008,-0.025 2.39,-3.491 0.002,-0.001 10e-4,-0.004 0.509,-0.729 1.671,-2.773 0.022,-0.013 0.013,-0.041 0.882,-1.284 0.149,-0.315 0.129,-0.081 0.101,-0.243 0.836,-0.346 0.835,0.346 0.347,0.836 -0.008,0.133 -0.012,0.107 -0.047,0.09 -0.025,0.125 -0.117,0.281 -0.009,0.03 -0.008,0.012 -0.259,0.62 -0.036,0.024 -0.027,0.103 -1.013,1.768 -0.031,0.018 -0.019,0.061 -1.843,2.683 -1.063,1.591 -1.14,1.904 -0.002,0.001 -10e-4,0.004 -3.719,6.072 -0.003,0.002 -0.002,0.006 -1.226,1.944 -1.278,2.227 -0.012,0.007 -0.007,0.023 -3.881,6.275 -4.087,7.198 v 0 l -4.199,7.422 -0.007,0.004 -0.004,0.014 -4.719,7.945 v 0 l -5.326,9.163 -0.005,0.003 -0.003,0.009 -5.533,9.187 -0.013,0.007 -0.008,0.026 -6.469,10.004 v 0 l -6.347,9.994 -0.024,0.013 -0.013,0.041 -4.128,5.862 -4.696,7.876 -6.444,11.837 v 0 l -6.151,11.325 -5.416,10.474 -4.303,9.147 H 690.4 l -3.984,8.405 -2.866,7.269 -2.439,6.537 -1.625,5.18 -1.087,4.295 -0.384,3.649 0.378,2.736 0.463,1.696 0.977,0.663 1.647,0.235 2.298,-0.353 3.29,-1.452 4.297,-2.299 4.758,-3.442 0.014,-0.005 0.005,-0.008 5.543,-3.901 4.902,-3.698 -0.182,-1.38 -0.013,-0.197 0.012,-0.187 0.618,-4.743 0.016,-0.029 0.018,-0.141 1.341,-5.157 0.038,-0.058 0.026,-0.13 2.474,-5.877 0.044,-0.053 0.02,-0.075 3.298,-5.978 0.027,-0.017 0.017,-0.057 4.018,-6.285 0.029,-0.016 0.016,-0.049 4.336,-5.968 0.041,-0.021 0.022,-0.059 4.531,-5.355 0.071,-0.033 0.033,-0.077 4.743,-4.521 0.032,-0.013 0.013,-0.028 4.116,-3.602 0.123,-0.046 0.044,-0.079 4.118,-2.664 0.135,-0.04 0.106,-0.086 3.285,-1.335 0.136,-0.027 0.056,-0.036 2.773,-0.708 0.356,-0.045 h 1.853 l 0.717,0.197 1.236,0.734 0.063,0.111 0.175,0.07 0.434,0.93 0.102,1.746 0.003,0.085 -0.036,0.313 -0.619,2.686 -0.03,0.046 -0.021,0.12 -1.239,3.304 -0.028,0.036 -0.014,0.062 -1.857,3.92 -0.044,0.028 -0.031,0.108 -2.783,4.432 -0.037,0.021 -0.022,0.065 -3.606,4.841 -0.038,0.02 -0.02,0.053 -4.428,5.149 -0.01,0.005 -0.005,0.012 -4.951,5.553 -0.025,0.011 -0.011,0.027 -5.559,5.765 h -10e-4 v 10e-4 l -5.568,5.757 -0.069,0.03 -0.029,0.062 -6.056,5.133 -5.271,4.791 0.132,1.002 0.752,2.821 1.343,2.394 2.102,1.84 3.085,1.297 3.316,0.842 4.004,-0.011 5.012,-0.896 5.399,-1.812 6.521,-2.752 h 0.002 l 7.322,-3.153 6.488,-3.853 7.248,-4.594 6.618,-4.77 6.226,-5.191 5.923,-5.295 5.517,-5.603 4.697,-5.089 4.37,-5.367 1.519,-2.212 -4.898,1.711 h -10e-4 l -5.725,2.16 -0.035,0.006 -0.016,0.012 -4.728,1.632 -0.086,0.015 -0.032,0.021 -3.902,1.027 -0.199,0.027 -0.033,0.016 -2.774,0.297 -0.164,0.009 -0.503,-0.088 -1.757,-0.631 -0.692,-0.531 -0.032,-0.101 -0.05,-0.029 -0.81,-1.44 -0.098,-0.371 -0.078,-0.143 -0.296,-2.053 -0.016,-0.215 0.066,-0.432 0.837,-2.683 0.058,-0.081 0.034,-0.14 1.651,-3.199 0.098,-0.059 0.068,-0.19 2.473,-2.988 0.015,-0.007 0.007,-0.019 3.501,-4.016 0.01,-0.005 0.005,-0.011 3.612,-4.009 0.016,-0.007 0.007,-0.018 3.707,-3.912 0.075,-0.032 0.031,-0.069 4.322,-3.705 0.103,-0.038 0.036,-0.067 4.01,-2.673 0.137,-0.042 0.036,-0.058 3.595,-1.746 0.202,-0.047 0.093,-0.06 3.387,-0.822 0.346,-0.042 v 0 h 0.007 l 2.368,0.012 0.004,0.002 0.415,0.063 1.966,0.621 0.427,0.308 0.173,0.075 1.338,1.441 0.11,0.28 0.238,0.388 0.524,2.459 0.014,0.129 0.01,0.02 0.308,2.773 0.01,0.164 -0.047,0.363 -1.032,3.922 -0.019,0.028 -0.011,0.069 -1.548,4.437 -0.055,0.073 -0.029,0.117 -2.577,4.845 -0.033,0.02 -0.02,0.07 -0.913,1.433 0.237,-0.084 0.01,-0.002 0.004,-0.003 6.685,-2.353 0.002,-10e-4 6.486,-2.331 0.064,-0.011 0.026,-0.018 5.865,-1.726 0.027,-0.004 0.009,-0.006 5.147,-1.405 0.094,-0.013 0.025,-0.014 4.218,-0.788 0.049,-0.005 0.009,-0.005 3.392,-0.502 0.2,-0.015 h 0.008 l 2.162,0.011 0.009,0.004 0.569,0.135 1.037,0.518 0.086,0.139 0.247,0.103 0.384,0.926 -0.023,0.243 -0.196,1.04 -0.075,0.127 -0.07,0.267 -0.817,1.454 -0.139,0.08 -0.091,0.217 -2.352,2.281 -0.083,0.034 -0.033,0.067 -3.883,2.992 -4.898,4.025 -0.068,0.024 -0.024,0.045 -6.05,4.219 -6.743,5.035 -7.376,5.868 v 0.001 l -7.45,5.963 -6.587,6.112 -5.361,5.9 -3.989,5.006 -2.441,4.538 -1.331,3.428 0.316,2.113 1.391,1.717 3.192,1.062 5.656,-0.011 7.599,-1.223 9.211,-2.472 10.213,-3.934 h 10e-4 l 10.994,-4.551 10.4,-5.39 0.62,-0.153 0.943,0.39 0.39,0.943 -0.689,1.168 -10.317,5.687 -0.071,0.019 -0.048,0.041 -10.939,4.879 -0.049,0.011 -0.027,0.021 -10.266,4.054 -0.123,0.024 -0.052,0.036 -9.34,2.626 -0.177,0.025 -0.041,0.023 -7.818,1.211 -0.274,0.022 h -0.003 l -6.074,-0.012 -0.003,-10e-4 -0.563,-0.096 -3.912,-1.375 -0.676,-0.512 -0.085,-0.042 -1.925,-2.488 -0.17,-0.493 -0.165,-0.313 -0.376,-2.981 -0.013,-0.21 0.115,-0.6 1.57,-3.914 0.053,-0.066 0.025,-0.097 2.598,-4.732 0.089,-0.052 0.059,-0.167 4.129,-5.142 0.044,-0.021 0.021,-0.055 5.474,-5.956 0.063,-0.028 0.028,-0.063 6.706,-6.158 0.063,-0.025 0.024,-0.05 7.534,-5.941 0.002,-10e-4 10e-4,-0.002 7.424,-5.847 0.029,-0.01 0.01,-0.02 6.804,-5.022 0.029,-0.01 0.01,-0.018 6.04,-4.184 4.92,-3.953 0.026,-0.009 0.009,-0.018 3.867,-2.923 2.189,-2.063 0.485,-0.836 -1.486,0.008 -3.271,0.507 -4.13,0.841 -5.073,1.457 h -0.002 l -5.813,1.758 -6.417,2.38 -0.02,0.004 -0.008,0.006 -6.677,2.376 h -0.003 v 0 l -3.857,1.396 -3.788,5.556 -0.044,0.022 -0.024,0.067 -4.419,5.466 -0.039,0.019 -0.018,0.048 -4.728,5.156 -0.022,0.009 -0.01,0.025 -5.551,5.67 -0.048,0.02 -0.02,0.045 -5.962,5.361 -0.029,0.011 -0.011,0.024 -6.27,5.257 -0.063,0.023 -0.023,0.044 -6.68,4.845 -0.063,0.02 -0.02,0.036 -7.303,4.629 -0.034,0.01 -0.01,0.017 -6.581,3.908 -0.105,0.029 -0.077,0.063 -7.402,3.188 -0.014,0.003 -0.006,0.005 -6.579,2.776 -0.082,0.017 -0.04,0.029 -5.552,1.839 -0.177,0.029 -0.049,0.028 -5.243,0.914 -0.266,0.023 h -0.004 l -4.324,-0.011 -0.002,-0.001 -0.368,-0.047 -3.61,-0.94 -0.062,-0.041 -0.136,-0.028 -3.402,-1.456 -0.212,-0.177 -0.166,-0.063 -2.472,-2.163 -0.128,-0.282 -0.188,-0.111 -1.53,-2.778 -0.056,-0.214 -0.079,-0.119 -0.726,-2.721 -3.738,2.819 -0.03,0.01 -0.01,0.019 -5.554,3.91 h -10e-4 l -4.824,3.489 -0.124,0.041 -0.036,0.06 -4.419,2.364 -0.061,0.015 -0.04,0.034 -3.491,1.541 -0.269,0.057 -0.084,0.047 -2.669,0.41 -0.216,0.017 -0.193,-0.013 -2.169,-0.31 -0.207,-0.113 -0.374,-0.118 -1.645,-1.145 -0.012,-0.022 -0.035,-0.012 -0.482,-0.719 -0.615,-2.255 -0.021,-0.15 -0.017,-0.031 -0.411,-2.979 -0.013,-0.192 0.007,-0.142 0.412,-3.918 0.015,-0.028 0.021,-0.163 1.145,-4.433 0.011,-0.016 0.006,-0.041 1.65,-5.26 0.014,-0.02 0.008,-0.042 2.485,-6.593 0.003,-0.004 10e-4,-0.006 2.885,-7.318 0.024,-0.029 0.01,-0.047 4.029,-8.444 V -74.8 l 4.332,-9.153 0.012,-0.007 0.008,-0.031 5.48,-10.496 0.005,-0.004 0.003,-0.012 4.986,-9.101 -3.333,4.306 -0.01,0.005 -0.005,0.013 -7.611,9.481 -7.097,8.949 -0.075,0.036 -0.036,0.09 -7.516,7.618 -0.006,0.002 -0.002,0.006 -7.215,7.198 -0.048,0.02 -0.02,0.045 -7.315,6.475 -0.049,0.019 -0.019,0.037 -7.004,5.548 -0.028,0.01 -0.009,0.019 -6.592,4.929 -0.075,0.025 -0.023,0.043 -6.28,4.002 -0.093,0.027 -0.074,0.066 -5.555,2.662 -0.044,0.01 -0.026,0.021 -5.039,2.148 -0.179,0.037 -0.073,0.046 -4.313,1.027 -0.36,0.044 -0.132,-0.006 -3.506,-0.31 -0.082,-0.04 -0.392,-0.083 -2.789,-1.239 -0.373,-0.32 -0.142,-0.064 -1.507,-1.731 -2.84,2.069 -0.039,0.012 -0.012,0.023 -3.501,2.355 -0.111,0.034 -0.094,0.083 -3.491,1.643 -0.227,0.051 -0.097,0.06 -2.769,0.616 -0.337,0.038 -0.187,-0.012 -2.478,-0.309 -0.218,-0.116 -0.442,-0.137 -1.652,-1.136 -0.16,-0.305 -0.27,-0.152 -1.242,-2.046 -0.038,-0.136 -0.078,-0.098 -1.14,-2.868 -0.07,-0.363 -0.035,-0.069 -0.308,-3.288 -0.007,-0.145 v 0 l -0.012,-4.221 v -0.004 l 0.02,-0.246 0.733,-4.537 0.009,-0.016 0.007,-0.066 1.135,-5.055 0.02,-0.032 0.014,-0.092 1.662,-5.154 0.01,-0.014 0.005,-0.029 1.764,-4.845 10e-4,-0.001 1.874,-5.139 h 10e-4 l 1.459,-4.099 v 0 l 1.254,-3.587 0.003,-0.004 10e-4,-0.005 1.046,-2.863 0.589,-1.789 -2.014,1.163 -2.628,1.85 -2.686,2.702 -0.045,0.018 -0.018,0.042 -3.424,3.036 -3.432,3.954 -3.9,4.533 -0.004,0.002 -0.002,0.005 -4.419,5.054 v 0 l -4.188,4.8 -3.654,4.79 -3.267,4.594 -2.861,4.313 -0.036,0.019 -0.019,0.057 -2.37,3.092 -0.06,0.03 -0.03,0.076 -1.743,1.862 -0.075,0.033 -0.033,0.071 -1.311,1.14 -0.58,0.527 -1.031,0.4 -1.083,-0.449 -0.107,-0.259 -0.156,-0.093 -0.325,-0.598 -0.166,-0.648 -0.025,-0.058 -0.035,-1.232 -10e-4,-0.047 0.024,-0.277 0.494,-2.793 0.016,-0.029 0.015,-0.107 0.907,-3.311 0.007,-0.012 0.004,-0.027 1.434,-4.647 0.009,-0.013 0.004,-0.027 1.743,-5.059 0.014,-0.019 0.006,-0.035 2.383,-6.08 0.035,-0.045 0.017,-0.072 2.794,-5.666 0.006,-0.007 0.003,-0.009 3.123,-6.066 v 0 l 2.58,-5.185 1.965,-4.39 0.014,-0.017 0.006,-0.025 1.585,-3.219 0.309,-1.447 -1.519,1.028 -2.794,2.28 -3.333,3.233 -4.097,4.301 -4.819,5.111 -5.203,6.121 -5.215,6.85 -5.032,7.087 v 0 l -4.2,5.942 -3.374,5.234 -0.019,0.011 -0.011,0.034 -2.746,3.885 -1.514,2.445 -0.046,0.025 -0.027,0.079 -1.022,1.349 -0.075,0.037 -0.565,0.438 -0.6,0.224 -0.521,0.096 v 0 l -1.029,-0.424 -10e-4,-0.003 -0.003,-0.001 -0.139,-0.336 -0.289,-0.686 -0.012,-1.44 v -0.013 l 0.066,-0.435 0.587,-1.897 0.593,-2.823 0.044,-0.072 0.037,-0.185 1.327,-3.195 1.636,-4.193 1.731,-4.719 10e-4,-10e-4 1.966,-5.349 0.014,-0.018 0.006,-0.031 2.574,-6.178 2.576,-6.564 v 0 l 2.36,-6.261 0.016,-0.02 0.008,-0.036 2.588,-5.976 v -10e-4 l 2.171,-5.036 0.001,-0.001 1.64,-3.868 0.838,-2.236 -0.173,0.13 -1.865,2.061 -0.021,0.01 -0.01,0.023 -2.877,2.98 -3.599,3.804 -0.082,0.036 -0.035,0.075 -5.035,4.228 -0.046,0.017 -0.017,0.033 -3.703,2.777 -0.119,0.04 -0.036,0.062 -3.802,2.158 -0.015,0.004 -0.004,0.006 -3.498,1.942 -0.104,0.028 -0.069,0.055 -3.083,1.221 -0.333,0.064 -0.063,0.032 -3.187,0.296 -0.134,0.007 h -0.006 l -2.677,-0.012 -0.005,-0.002 -0.46,-0.081 -2.275,-0.827 -0.11,-0.084 -0.145,-0.043 -1.962,-1.238 -0.11,-0.2 -0.237,-0.116 -0.446,-0.574 -1.105,2.461 -10e-4,10e-4 -2.143,4.928 -0.084,0.1 -0.037,0.123 -2.989,4.638 -0.031,0.018 -0.018,0.054 -3.606,4.946 -0.081,0.041 -0.043,0.107 -4.427,4.737 -0.045,0.019 -0.019,0.045 -4.735,4.529 -0.011,0.004 -0.005,0.011 -4.742,4.417 -0.127,0.05 -0.047,0.091 -5.252,3.693 -0.021,0.007 -0.006,0.012 -4.84,3.282 -0.09,0.027 -0.078,0.073 -5.144,2.662 -0.05,0.012 -0.032,0.028 -4.731,2.147 -0.16,0.035 -0.076,0.051 -4.727,1.325 -0.283,0.039 -0.035,0.017 -4.01,0.297 -0.12,0.005 -0.208,-0.014 -3.818,-0.516 -0.135,-0.073 -0.382,-0.096 -2.891,-1.548 -0.068,-0.115 -0.209,-0.078 -2.37,-2.061 -0.066,-0.145 -0.313,-0.352 -1.334,-2.77 -0.041,-0.179 -0.06,-0.089 -0.311,-1.118 -4.376,3.043 v 0 l -12.767,8.943 -0.015,0.005 -0.005,0.009 -8.024,5.485 0.465,0.786 0.043,0.158 0.081,0.107 1.232,3.49 0.046,0.26 0.03,0.058 0.526,4.212 0.012,0.187 v 0.001 l 0.012,4.735 v 0.004 l -0.014,0.2 -0.71,5.259 -0.022,0.042 -0.027,0.182 -1.639,5.47 -0.026,0.037 -0.015,0.079 -2.35,5.887 -0.033,0.04 -0.015,0.065 -3.185,6.397 -0.049,0.053 -0.019,0.067 -4.308,6.916 -0.049,0.027 -0.028,0.084 -5.235,6.915 -0.03,0.015 -0.015,0.042 -5.955,7.121 -0.069,0.032 -0.033,0.078 -6.571,6.502 -0.04,0.016 -0.016,0.036 -6.983,6.296 -0.112,0.043 -0.041,0.079 -7.4,5.257 -0.047,0.015 -0.015,0.027 -7.605,4.947 -0.078,0.023 -0.065,0.061 -8.226,4.319 -0.072,0.018 -0.046,0.038 -8.014,3.507 -0.091,0.019 -0.047,0.035 -7.713,2.662 -0.07,0.012 -0.028,0.019 -7.506,2.147 -0.109,0.016 -0.032,0.019 -6.479,1.313 -0.145,0.015 -0.022,0.011 -5.759,0.606 -0.179,0.009 -0.208,-0.013 -4.226,-0.539 -0.072,-0.038 -0.29,-0.053 -3.301,-1.25 -0.741,-0.583 -0.029,-0.093 -0.047,-0.027 -1.417,-2.475 -0.124,-0.463 -0.08,-0.153 -0.399,-3.494 -0.011,-0.187 0.075,-0.482 1.456,-4.537 0.08,-0.111 0.046,-0.173 3.103,-5.458 0.067,-0.039 0.043,-0.126 4.85,-6.379 0.069,-0.034 0.035,-0.088 6.803,-7.199 0.041,-0.017 0.018,-0.041 8.345,-7.918 0.062,-0.024 0.024,-0.051 10.086,-8.234 0.013,-0.005 0.005,-0.009 11.012,-8.748 0.033,-0.012 0.011,-0.022 12.651,-9.374 0.007,-0.002 0.002,-0.005 12.754,-9.374 0.033,-0.011 0.011,-0.02 13.364,-9.178 0.023,-0.007 0.006,-0.013 13.577,-8.962 v 0 l 3.001,-2.057 -1.653,-1.803 -2.129,-1.481 -2.446,-1.129 -2.443,-0.646 -2.789,-0.277 -2.635,0.022 -2.399,0.222 -0.012,10e-4 h -10e-4 l -2.278,0.201 -1.344,0.47 -0.198,0.034 -0.058,0.033 -1.223,0.216 -0.199,0.018 -0.013,0.006 -0.511,0.023 -0.075,0.002 -1.132,-0.469 -0.469,-1.132 0.031,-0.314 0.105,-0.525 0.433,-0.718 0.068,-0.151 0.814,-0.728 0.142,-0.054 0.05,-0.094 1.17,-0.767 1.679,-1.383 0.045,-0.015 0.015,-0.032 2.035,-1.526 2.692,-2.193 2.927,-2.911 3.229,-3.33 3.029,-3.818 2.958,-4.061 2.846,-4.249 2.629,-4.55 2.423,-4.823 1.828,-4.841 1.638,-4.882 1.314,-4.507 0.7,-4.231 0.098,-3.911 -0.4,-3.598 v 0 l -0.394,-3.048 -0.657,-2.158 -0.729,-1.615 -0.819,-1.117 -0.892,-0.438 -1.057,-0.14 -1.877,0.351 -2.3,0.92 -2.444,1.565 -0.052,0.015 -0.015,0.025 -3.33,1.918 -3.636,2.626 -0.002,0.001 v 0.001 l -4.114,2.982 -0.095,0.031 -0.029,0.051 -4.522,2.672 -0.011,0.003 -0.003,0.005 -4.734,2.766 -0.057,0.015 -0.014,0.024 -4.727,2.466 -0.021,0.005 -0.013,0.012 -5.144,2.56 -0.089,0.021 -0.052,0.041 -4.828,1.849 -0.002,10e-4 -4.417,1.734 -0.146,0.028 -0.057,0.036 -4.21,1.027 -0.244,0.03 -0.025,0.012 -4.629,0.297 -0.099,0.003 h -0.042 l -4.119,-0.115 -0.012,-0.005 -0.247,-0.025 -3.507,-0.734 -0.032,-0.02 -0.097,-0.015 -2.993,-0.94 -0.057,-0.041 -0.108,-0.024 -1.039,-0.482 0.08,2.933 v 0.043 l -0.001,0.072 -0.195,4.121 -0.003,0.008 -0.007,0.112 -0.596,4.643 -0.018,0.033 -0.021,0.161 -1.318,4.958 -0.014,0.022 -0.009,0.054 -1.731,5.269 -0.053,0.071 -0.029,0.125 -2.649,5.378 -0.021,0.023 -0.008,0.031 -3.062,5.584 -0.052,0.053 -0.018,0.061 -3.784,5.687 -0.059,0.032 -0.034,0.094 -4.111,5.054 -0.028,0.014 -0.014,0.036 -4.102,4.649 -0.147,0.067 -0.065,0.136 -4.732,3.807 -0.053,0.018 -0.019,0.036 -4.826,3.506 -0.152,0.05 -0.142,0.124 -5.038,2.352 -0.063,0.014 -0.035,0.029 -4.832,1.941 -0.198,0.039 -0.075,0.047 -4.932,1.118 -0.155,0.018 -0.028,0.014 -4.934,0.606 -0.216,0.013 -0.086,-0.002 -4.533,-0.229 -0.018,-0.009 -0.227,-0.022 -4.126,-0.837 -0.058,-0.035 -0.168,-0.03 -4.022,-1.456 -0.145,-0.111 -0.184,-0.055 -3.5,-2.278 -0.059,-0.11 -0.162,-0.064 -2.978,-2.789 -0.087,-0.199 -0.152,-0.081 -2.354,-3.501 -0.047,-0.153 -0.105,-0.128 -1.736,-4.111 -0.043,-0.211 -0.05,-0.081 -1.016,-4.624 -0.015,-0.14 -0.013,-0.023 -0.605,-5.038 -0.012,-0.197 0.002,-0.09 0.321,-5.666 0.009,-0.02 0.024,-0.22 1.249,-5.773 0.019,-0.03 0.014,-0.092 1.856,-5.982 0.033,-0.046 0.018,-0.092 2.588,-6.079 0.065,-0.078 0.029,-0.103 3.401,-5.669 0.027,-0.015 0.015,-0.051 4.121,-6.079 0.077,-0.04 0.042,-0.112 0.428,-0.483 -4.227,3.044 v 0 l -10.385,7.609 v 0 l -10.891,8.131 -0.031,0.011 -0.011,0.019 -11.427,8.12 -0.035,0.011 -0.011,0.02 -11.317,7.614 -0.065,0.019 -0.056,0.056 -11.629,6.676 -0.062,0.017 -0.044,0.04 -11.112,5.544 -0.111,0.026 -0.065,0.051 -10.698,4.103 -0.145,0.027 -0.059,0.039 -10.49,2.765 -0.256,0.034 -0.04,0.02 -9.877,1.006 -0.193,0.01 h -0.021 l -9.781,-0.115 -0.005,-0.002 -0.268,-0.022 -4.717,-0.78 -8.792,8.853 -15.225,15.447 -0.01,0.004 -0.004,0.01 -15.75,15.647 -0.016,0.007 -0.007,0.015 -15.535,14.935 -0.005,0.002 -0.002,0.004 -14.816,14.111 -0.072,0.029 -0.029,0.061 -14.71,12.154 -0.013,0.005 -0.005,0.009 -14.504,11.742 -0.073,0.026 -0.025,0.049 -13.885,9.888 -0.027,0.009 -0.024,0.026 -12.752,8.55 -0.111,0.034 -0.094,0.087 -11.92,6.089 -0.116,0.028 -0.07,0.056 -10.997,4.33 -0.121,0.023 -0.052,0.037 -10.068,3.004 -0.24,0.035 -0.055,0.031 -9.15,1.348 -0.305,0.023 -0.164,-0.007 -8.554,-0.698 -0.085,-0.041 -0.486,-0.092 -7.116,-2.784 -0.25,-0.2 -0.244,-0.083 -5.57,-4.318 -0.064,-0.131 -0.379,-0.344 -4.627,-6.89 -0.076,-0.246 -0.152,-0.199 -3.393,-9.251 -0.056,-0.311 -0.048,-0.086 -1.84,-11.52 -0.02,-0.244 -0.006,-0.014 -0.503,-13.482 -0.002,-0.079 0.009,-0.181 1.373,-15.344 0.012,-0.024 0.018,-0.179 3.319,-16.685 0.016,-0.027 0.012,-0.089 4.772,-17.711 0.031,-0.046 0.02,-0.108 6.511,-17.609 0.021,-0.026 0.009,-0.046 7.449,-17.499 0.035,-0.042 0.015,-0.064 8.879,-17.398 0.02,-0.022 0.008,-0.029 9.197,-16.463 0.053,-0.054 0.018,-0.061 10.112,-15.126 0.015,-0.008 0.008,-0.025 9.906,-13.992 0.062,-0.032 0.033,-0.09 10.005,-11.723 0.023,-0.01 0.011,-0.028 8.871,-9.765 0.062,-0.028 0.028,-0.063 8.139,-7.712 0.128,-0.051 0.049,-0.095 7.523,-5.434 0.12,-0.039 0.112,-0.103 6.276,-3.176 0.211,-0.051 0.109,-0.074 5.862,-1.622 0.412,-0.057 0.013,-0.005 5.146,-0.092 h 0.03 l 0.567,0.101 4.537,1.661 0.177,0.138 0.199,0.063 4.631,3.307 0.061,0.119 0.151,0.064 4.53,4.632 0.084,0.207 0.137,0.077 3.805,6.169 0.027,0.094 0.063,0.072 3.301,6.985 0.013,0.057 0.026,0.033 3.404,8.323 0.005,0.027 0.01,0.013 1.91,4.933 0.734,-1.482 0.017,-0.019 0.007,-0.025 8.981,-16.571 0.057,-0.06 0.02,-0.067 11.45,-16.978 0.029,-0.016 0.016,-0.047 13.095,-17.388 0.035,-0.017 0.017,-0.047 14.32,-16.981 0.032,-0.014 0.014,-0.038 15.34,-16.575 0.045,-0.02 0.02,-0.046 15.655,-15.021 0.04,-0.016 0.016,-0.035 15.954,-13.896 0.047,-0.018 0.018,-0.035 16.159,-12.66 0.058,-0.02 0.019,-0.037 15.327,-10.61 0.113,-0.035 0.032,-0.054 15.022,-8.232 0.049,-0.012 0.033,-0.03 13.059,-6.286 0.124,-0.028 0.067,-0.05 12.235,-4.125 0.138,-0.023 0.045,-0.028 9.972,-2.171 0.327,-0.036 0.007,-0.003 8.44,-0.103 h 0.021 z m -220.123,126.238 -5.501,1.567 -6.008,3.066 -7.301,5.329 -7.995,7.606 -8.774,9.727 -9.899,11.669 -9.806,13.932 -10.014,15.062 -9.082,16.4 -8.785,17.316 -7.338,17.415 -6.415,17.481 -4.662,17.568 -3.237,16.508 -1.284,15.105 0.517,13.235 1.814,11.212 3.244,8.848 4.311,6.418 5.058,3.948 6.554,2.563 8.015,0.698 8.792,-1.273 9.878,-2.9 10.85,-4.247 11.761,-5.957 12.654,-8.456 13.829,-9.82 14.471,-11.685 v 0 l 14.666,-12.087 14.78,-14.046 15.537,-14.903 15.732,-15.63 15.238,-15.427 0.002,-0.001 0.001,-0.002 6.953,-7.001 -8.534,-2.654 -0.086,-0.061 -0.154,-0.035 -7.829,-3.824 -0.13,-0.117 -0.133,-0.044 -6.561,-4.843 -3.971,1.649 -0.103,0.02 -0.049,0.036 -12.041,3.978 -0.183,0.03 -0.057,0.034 -10.08,2.034 -0.394,0.04 -0.102,-0.003 -8.444,-0.447 -0.067,-0.031 -0.547,-0.108 -6.077,-2.497 -0.331,-0.271 -0.224,-0.088 -4.095,-3.836 -0.085,-0.197 -0.336,-0.396 -2.651,-5.969 -0.144,-0.669 -0.016,-0.037 -0.171,-7.822 v -0.041 l 0.033,-0.34 0.147,-0.754 -12.723,8.218 -0.017,0.004 -0.013,0.014 -16.07,10.055 -0.022,0.006 -0.016,0.017 -14.217,8.51 -0.005,0.002 -0.004,0.003 -12.436,7.428 -0.023,0.006 -0.018,0.017 -10.685,6.089 -10e-4,0.001 -8.261,4.772 h -10e-4 l -6.401,3.753 -0.055,0.015 -0.041,0.037 -4.747,2.425 -0.036,0.009 -0.023,0.02 -2.99,1.405 L 8.328,-0.973 8.275,-0.932 6.53,-0.304 6.43,-0.286 6.392,-0.262 1.24,1.018 1.01,1.047 0.991,1.056 -0.049,1.109 -0.103,1.111 -0.815,0.815 -1.111,0.103 -0.614,-0.766 0.28,-1.292 0.477,-1.346 0.595,-1.425 5.46,-2.747 l 1.23,-0.994 0.145,-0.051 0.159,-0.144 2.958,-1.467 4.644,-2.475 6.299,-3.826 0.011,-0.003 0.008,-0.008 8.191,-4.894 0.027,-0.007 0.02,-0.02 10.709,-6.049 v 0 l 12.436,-7.373 h 0.001 l 14.174,-8.566 v 0 l 16.011,-10.1 h 10e-4 l 15.746,-10.196 0.743,-3.808 0.019,-0.032 0.015,-0.107 3.423,-11.844 0.031,-0.045 0.019,-0.098 5.379,-13.592 0.036,-0.045 0.017,-0.072 4.716,-9.514 -2.982,-7.765 -0.001,-0.002 -3.365,-8.29 -3.225,-6.878 -3.664,-5.942 -4.3,-4.397 -4.338,-3.072 -4.037,-1.456 z m 336.757,113.295 -0.022,0.007 -0.006,0.012 -13.59,8.942 v 0 l -13.361,9.12 -12.744,9.338 v 0 l -12.649,9.343 -10.987,8.729 -10.033,8.19 -8.258,7.866 -6.7,7.123 -4.716,6.24 -2.947,5.229 -1.278,4.052 0.342,2.827 0.999,1.681 2.583,0.958 3.844,0.448 5.498,-0.601 6.342,-1.332 7.411,-2.144 7.612,-2.652 7.918,-3.439 8.111,-4.258 7.531,-4.872 7.31,-5.164 6.916,-6.173 6.522,-6.389 5.915,-7 5.202,-6.796 4.265,-6.762 3.141,-6.257 2.34,-5.739 1.603,-5.271 0.701,-5.029 0.011,-4.542 -0.473,-3.972 -1.136,-3.216 -0.29,-0.498 z m -193.917,-60.891 -0.018,0.005 -0.016,0.017 -7.597,4.956 -0.002,0.001 -0.001,0.001 -9.567,6.275 -0.01,0.003 -0.008,0.008 -11.618,7.52 -0.022,0.006 -0.017,0.019 -12.557,7.809 -0.053,0.015 -0.042,0.04 -13.687,7.603 -0.021,0.005 -0.015,0.014 -13.383,7.18 -0.115,0.03 -0.074,0.06 -5.103,2.118 4.738,3.479 7.564,3.669 8.402,2.589 2.007,0.321 4.802,-4.835 13.377,-13.48 12.439,-12.747 10.078,-10.696 0.021,-0.008 0.008,-0.022 8.724,-8.843 4.857,-5.2 z m -105.081,15.148 -0.02,0.006 -0.017,0.018 -18.117,11.516 h -10e-4 l -0.358,0.231 -0.73,3.885 0.224,7.268 2.394,5.289 3.613,3.3 5.471,2.203 7.879,0.352 9.736,-2.01 11.858,-3.99 2.201,-0.918 -4.171,-4.115 -0.047,-0.113 -0.095,-0.046 -5.865,-7.408 -0.042,-0.118 -0.069,-0.038 -4.928,-7.823 -0.022,-0.075 -0.055,-0.061 -4.515,-8.746 -0.013,-0.055 -0.03,-0.035 -0.472,-1.043 z m 386.875,-17.697 -0.004,0.001 -0.002,0.004 -7.821,6.483 -0.021,0.008 -0.007,0.015 -8.651,6.886 -0.035,0.012 -0.012,0.023 -10.091,7.503 -0.027,0.009 -0.009,0.017 -10.914,7.708 -0.017,0.005 -0.005,0.01 -11.834,8.129 v 10e-4 l -5.176,3.598 0.565,2.034 1.14,2.365 1.993,1.733 2.482,1.33 3.365,0.454 3.692,-0.295 4.468,-1.274 4.588,-2.107 5.018,-2.623 4.746,-3.245 h 0.001 l 5.136,-3.64 4.64,-4.353 4.696,-4.492 4.328,-4.63 3.517,-4.824 2.889,-4.483 2.124,-4.828 0.004,-0.004 10e-4,-0.004 1.946,-4.276 0.144,-0.38 -0.045,-0.11 -0.016,-0.079 -0.026,-0.036 -0.934,-2.972 -0.028,-0.178 -0.024,-0.043 -0.434,-2.871 -0.008,-0.11 -0.005,-0.011 L 512,-90.32 Z m 145.6,-10.017 -2.643,0.577 -3.47,1.856 -4.309,2.707 -4.298,3.413 -4.427,4.241 -4.311,4.828 -3.617,5.327 -3.301,5.725 -2.188,5.539 -1.184,5.427 -0.306,4.617 0.284,3.966 0.229,0.546 2.988,-2.648 5.073,-4.886 4.79,-5.385 5.026,-6.051 4.808,-5.898 3.888,-5.709 h 10e-4 l 3.474,-5.089 2.527,-4.426 1.699,-3.572 0.864,-2.559 0.253,-1.94 -0.175,-0.656 -0.343,-0.181 z m -127.12,-20.814 -4.161,0.584 -4.991,1.685 -5.996,2.325 -6.262,2.93 -6.408,3.865 -0.006,0.002 -10e-4,0.002 -6.969,4.202 -6.895,4.679 -6.702,5.599 -5.997,5.49 -5.561,6.083 -4.542,5.955 -3.615,5.947 -2.703,5.607 -1.774,5.36 -0.894,5.001 v 2.246 l 3.686,-2.579 0.013,-0.004 0.004,-0.008 11.833,-8.129 v 0 l 10.879,-7.711 10.042,-7.495 8.607,-6.88 7.807,-6.472 v 0 l 6.855,-5.744 0.691,-0.64 0.1,-0.692 0.015,-0.026 0.015,-0.118 0.608,-2.381 0.105,-0.159 0.07,-0.245 0.911,-1.46 0.031,-0.017 0.017,-0.055 0.817,-1.143 0.245,-0.125 0.123,-0.235 0.606,-0.418 0.868,-0.272 0.221,0.016 0.628,0.093 0.925,0.511 0.069,0.183 0.104,0.061 0.175,0.306 3.18,-2.977 3.738,-4.125 2.774,-3.469 1.387,-2.384 0.49,-1.762 -0.08,-0.764 -0.387,-0.3 -1.554,-0.313 z m 222.452,16.241 -2.515,0.663 -3.082,1.253 -3.913,2.556 -4.017,3.515 -4.65,4.463 -4.445,5.254 -4.259,5.901 -3.968,6.206 -3.234,5.863 -2.4,5.701 -1.289,4.958 -0.47,3.601 3.682,-3.347 0.027,-0.011 0.01,-0.022 6.021,-5.102 5.502,-5.723 h 0.001 v -0.001 l 5.539,-5.744 4.907,-5.538 4.388,-5.101 3.541,-4.756 2.706,-4.31 1.794,-3.787 1.182,-3.153 0.551,-2.391 -0.047,-0.797 -0.264,-0.151 z m -636.677,13.387 -5.276,13.455 -3.329,11.689 -0.087,0.461 15.486,-9.867 h 0.001 l 4.306,-2.857 -2.043,-4.522 -0.007,-0.034 -0.015,-0.019 -3.794,-9.053 -0.015,-0.071 -0.026,-0.035 -1.989,-5.696 z m 182.592,-171.611 -9.745,2.099 -12.077,4.048 -12.954,6.209 -14.918,8.175 -15.239,10.52 -16.092,12.607 -15.896,13.845 -15.578,14.98 -15.282,16.513 -14.248,16.93 -13.004,17.343 -11.339,16.898 -8.886,16.493 -2.067,4.213 3.093,8.729 3.794,8.991 1.825,3.991 12.342,-8.184 19.934,-13.887 0.009,-0.002 0.003,-0.006 19.955,-13.783 19.838,-14.494 h 0.002 l 0.001,-10e-4 19.642,-14.398 17.75,-13.851 16.746,-14.368 15.198,-13.349 13.321,-12.675 10.774,-11.868 9.225,-10.403 6.599,-9.078 4.554,-8.431 2.697,-6.997 0.699,-5.62 -0.697,-4.213 -2.262,-3.062 -3.845,-2.575 -5.8,-1.437 z m 509.461,144.246 -3.087,0.748 -3.378,1.642 -3.862,2.574 -4.201,3.601 -3.641,3.843 -3.575,4.001 -3.482,3.994 -2.36,2.852 -1.516,2.938 -0.678,2.237 0.228,1.458 0.42,0.724 0.918,0.317 2.336,-0.269 3.754,-0.988 4.661,-1.634 h 0.002 l 5.739,-2.141 0.028,-0.005 0.012,-0.009 6.475,-2.261 0.003,-10e-4 h 10e-4 l 2.255,-0.8 2.882,-4.484 2.494,-4.69 1.49,-4.273 0.947,-3.598 -0.273,-2.452 -0.411,-2.02 -0.813,-0.876 -1.39,-0.438 z m -288.287,21.776 -0.022,0.136 0.181,2.876 0.267,1.983 0.567,-2.585 0.601,-3.146 0.03,-0.777 z m -156.429,-6.677 0.027,0.079 0.08,0.079 1.719,2.831 1.709,2.411 0.019,0.06 0.033,0.019 1.437,2.258 0.006,0.019 0.016,0.015 0.933,1.526 -0.37,-1.21 -1.033,-1.878 -0.004,-0.015 -0.01,-0.011 -1.054,-1.961 -1.593,-2.191 -1.939,-2.093 -0.054,-0.04 z"
         id="path14" />
      <g
         transform="translate(430.75,-135.875)"
         id="g18">
        <path
           fill-mode="evenodd"
           fill="#000000"
           d="m 100.445,-57.802 18.946,1.018 0.004,10e-4 0.055,0.003 19.771,1.957 0.007,0.003 0.051,0.004 20.495,2.975 0.007,0.004 0.034,0.003 20.911,3.787 0.006,0.004 0.023,0.002 22.044,4.612 h 0.001 l 22.431,4.709 22.634,4.183 v 0 l 23.844,4.178 25.074,3.459 24.869,2.739 26.213,2.112 25.29,1.519 25.081,0.993 23.951,0.411 h 22.383 l 19.5,-0.991 17.646,-1.299 14.851,-1.877 12.545,-2.287 9.539,-2.872 6.899,-2.926 4.103,-3.082 1.268,-2.226 -0.807,-2.455 -3.295,-2.984 -6.529,-2.992 -9.936,-2.66 -12.736,-2.151 -15.228,-0.511 -15.681,0.41 -15.071,1.333 -13.209,1.843 -9.88,2.151 -6.935,2.329 -4.755,3.156 -0.555,0.168 -0.704,-0.292 -0.292,-0.704 0.426,-0.817 4.795,-3.349 0.206,-0.065 0.047,-0.066 7.067,-2.545 0.116,-0.02 0.039,-0.024 9.981,-2.149 0.075,-0.009 0.015,-0.007 13.273,-1.853 0.057,-0.004 0.006,-0.003 15.128,-1.338 0.073,-0.003 0.002,-0.001 15.749,-0.412 h 0.031 0.038 l 15.341,0.515 0.007,0.003 0.14,0.012 12.877,2.151 0.019,0.011 0.077,0.01 10.102,2.656 0.056,0.038 0.119,0.025 6.812,3.07 0.066,0.103 0.22,0.083 3.738,3.26 0.059,0.131 0.292,0.384 1.173,3.27 0.079,0.443 -0.152,0.606 -1.61,3.014 -0.208,0.125 -0.141,0.289 -4.388,3.441 -0.145,0.05 -0.15,0.128 -7.066,3.149 -0.109,0.023 -0.054,0.039 -9.645,3.049 -0.143,0.022 -0.041,0.025 -12.641,2.423 -0.081,0.008 -0.015,0.007 -14.909,2.024 -0.094,0.007 -0.009,0.005 -17.698,1.372 -0.042,0.002 -0.003,10e-4 -19.553,1.064 -0.098,0.003 h -22.442 -0.029 l -23.988,-0.412 h -10e-4 l -0.041,-0.001 -25.12,-1.065 h -0.002 l -0.028,-0.001 -25.327,-1.568 -0.003,-10e-4 -0.029,-0.001 -26.253,-2.209 -0.004,-0.002 -0.036,-0.002 -24.916,-2.815 -0.005,-0.003 -0.031,-0.002 -25.121,-3.535 -0.009,-0.005 -0.039,-0.003 -23.886,-4.257 -0.002,-0.001 h -0.003 l -22.65,-4.256 -0.006,-0.004 -0.019,-0.002 -22.446,-4.76 h -0.001 l -22.005,-4.651 -20.846,-3.822 -20.423,-2.988 -19.701,-1.95 -18.847,-1.036 -18.422,0.615 -17.403,1.74 -16.675,2.979 -15.136,3.886 -12.743,4.282 -11.114,5.201 -9.052,4.882 -6.835,4.797 -4.699,4.882 -3.12,4.114 -1.394,3.56 -0.29,2.971 0.604,2.499 1.157,2.179 1.417,1.527 0.03,0.076 0.057,0.028 0.827,1.098 6.382,1.843 6.209,1.17 L 0.81,0.103 0.573,0.676 0,0.913 -0.112,0.905 -6.418,0.025 -6.436,0.015 -6.519,0.004 l -6.827,-1.753 -0.172,-0.113 -0.197,-0.066 -1.385,-1.043 -0.047,-0.094 -0.113,-0.049 -1.552,-1.639 -0.08,-0.2 -0.118,-0.07 -1.355,-2.453 -0.054,-0.207 -0.075,-0.113 -0.741,-2.867 -0.045,-0.352 0.005,-0.115 0.286,-3.404 0.029,-0.06 0.064,-0.333 1.558,-3.916 0.129,-0.16 0.054,-0.159 3.306,-4.32 0.063,-0.031 0.032,-0.08 4.831,-5.053 0.14,-0.06 0.058,-0.111 6.982,-4.957 0.117,-0.038 0.034,-0.056 9.154,-4.938 0.064,-0.016 0.015,-0.023 11.212,-5.247 0.102,-0.023 0.055,-0.039 12.858,-4.321 0.079,-0.013 0.028,-0.019 15.226,-3.91 0.092,-0.012 0.022,-0.012 16.774,-2.973 0.099,-0.009 0.013,-0.007 17.495,-1.749 0.094,-0.005 0.004,-0.002 18.527,-0.618 h 0.049 z"
           id="path16" />
      </g>
      <g
         transform="translate(256.25,-7.375)"
         id="g22">
        <path
           fill-mode="evenodd"
           fill="#000000"
           d="m 102.807,-136.795 0.074,0.111 0.099,0.041 0.117,0.284 0.348,0.521 0.192,0.711 0.064,0.477 -0.056,0.445 -0.426,1.656 -0.018,0.028 -0.011,0.069 -1.147,3.509 -0.001,0.002 -1.54,4.584 -1.84,6.85 -0.022,0.033 -0.013,0.078 -2.756,7.897 -2.86,9.744 -10e-4,10e-4 -3.182,10.616 -0.002,0.002 v 0.003 l -3.68,11.835 -3.275,11.712 -0.008,0.01 -0.003,0.025 -3.482,11.241 -0.001,0.002 v 10e-4 l -3.298,10.308 h -10e-4 l -2.762,9.006 -2.118,7.877 -0.003,0.005 -10e-4,0.01 -1.7,5.944 -1.281,5.025 -0.666,3.529 -0.472,0.795 -0.882,0.32 -0.976,-0.404 -0.404,-0.976 0.007,-0.134 0.353,-3.625 0.008,-0.016 0.01,-0.109 0.963,-5.19 0.015,-0.026 0.012,-0.091 1.593,-5.998 h 0.001 l 1.984,-7.92 0.015,-0.022 0.008,-0.058 2.783,-9.072 0.003,-0.003 v -0.005 l 3.298,-10.307 0.001,-10e-4 3.511,-11.179 3.297,-11.705 0.008,-0.012 0.005,-0.028 3.731,-11.845 h 0.001 l 3.195,-10.579 0.001,-10e-4 2.89,-9.766 0.016,-0.022 0.008,-0.051 2.77,-7.865 1.385,-5.156 -0.26,0.444 -3.572,6.376 -0.042,0.043 -0.014,0.05 -4.73,7.322 -0.032,0.03 -0.01,0.031 -5.853,8.255 -0.007,0.003 -0.003,0.011 -6.901,9.476 -0.004,0.002 -0.002,0.005 -7.406,9.998 -0.032,0.016 -0.016,0.046 -8.257,10.18 v 0 l -8.247,10.273 -0.011,0.005 -0.005,0.014 -8.055,9.719 -7.432,9.626 -0.022,0.011 -0.011,0.031 -6.871,8.324 -6.039,7.818 -0.037,0.018 -0.018,0.049 -5.376,6.284 -4.141,5.576 -0.026,0.013 -0.013,0.038 -3.21,3.964 -2.261,3.006 -1.26,1.86 L 6.426,-4.693 6.379,-4.577 2.211,-0.198 2.01,-0.112 1.935,0.018 0.486,0.843 0,0.973 -0.688,0.688 -0.973,0 l 0.279,-0.682 1.156,-1.176 3.874,-4.261 0.662,-1.921 0.137,-0.183 0.067,-0.209 2.23,-3.12 0.025,-0.013 0.013,-0.037 3.133,-4.016 4.042,-5.677 0.046,-0.023 0.024,-0.067 5.277,-6.418 6.079,-7.793 0.021,-0.01 0.01,-0.028 6.882,-8.302 7.355,-9.679 0.023,-0.011 0.011,-0.032 7.982,-9.813 8.211,-10.301 0.002,-10e-4 0.001,-0.003 8.195,-10.178 7.399,-9.948 6.889,-9.46 v 0 l 5.85,-8.172 4.691,-7.22 3.599,-6.329 0.008,-0.007 0.002,-0.009 2.762,-4.683 1.747,-3.443 0.114,-0.125 0.042,-0.126 1.669,-2.256 0.123,-0.061 0.064,-0.152 0.728,-0.712 1.257,-0.512 z"
           id="path20" />
      </g>
      <g
         transform="translate(243.375,-51.5)"
         id="g26">
        <path
           fill-mode="evenodd"
           fill="#000000"
           d="m 142.82,-15.89 0.441,1.066 -0.389,1.01 -0.962,0.489 -15.415,1.614 -0.007,10e-4 v 0 l -16.444,1.728 -0.002,10e-4 -15.723,1.805 -0.007,10e-4 v 0 l -15.728,1.818 -15.103,2.087 -0.063,0.005 -0.009,0.004 -14.1,1.485 -12.625,1.564 H 36.681 L 26.518,0.158 26.469,0.161 26.463,0.164 18.121,1.089 18.064,1.092 18.058,1.095 11.673,1.608 H 11.669 11.668 L 7.448,1.95 7.309,1.956 H 7.278 L 4.189,1.897 4.183,1.895 3.971,1.878 2.437,1.634 -0.077,1.477 -0.585,1.237 -0.828,1.136 -0.835,1.119 -0.853,1.111 -1.17,0.309 -0.828,-0.519 -0.821,-0.522 -0.818,-0.528 -0.664,-0.679 0,-0.949 0.225,-0.858 2.409,-0.82 3.766,-1.214 4.177,-1.274 4.191,-1.28 7.2,-1.336 11.327,-1.808 h 0.009 v -10e-4 l 6.358,-0.72 8.287,-1.128 0.022,-0.002 0.003,-0.002 10.187,-1.302 0.021,-0.002 0.003,-0.001 12.655,-1.52 0.019,-0.001 0.002,-0.002 14.07,-1.599 15.075,-2.224 0.08,-0.006 0.011,-0.005 15.749,-1.68 h 0.006 l 0.001,-10e-4 15.748,-1.691 0.05,-0.003 0.005,-0.002 16.48,-1.359 h 0.006 v 0 l 15.451,-1.267 0.129,-0.005 z"
           id="path24" />
      </g>
      <g
         transform="translate(-145.9375,93.5)"
         id="g30">
        <path
           fill-mode="evenodd"
           fill="#000000"
           d="m 1127.014,-172.611 9.686,1.224 0.03,0.016 0.15,0.019 9.688,2.473 0.066,0.044 0.149,0.031 8.147,3.493 0.064,0.053 0.087,0.023 7.728,4.431 0.054,0.094 0.165,0.06 5.878,4.934 0.032,0.069 0.076,0.032 5.25,5.353 0.1,0.243 0.148,0.087 3.29,5.86 0.037,0.141 0.071,0.091 2.353,6.376 0.092,0.509 0.01,0.016 0.102,6.793 10e-4,0.025 v 0 0 l -0.15,0.665 -2.783,5.877 -0.109,0.122 -0.041,0.126 -4.326,5.872 -0.202,0.101 -0.101,0.206 -7.107,5.445 -0.131,0.044 -0.132,0.119 -10.285,5.04 -0.121,0.028 -0.067,0.05 -14.092,4.835 -0.083,0.014 -0.031,0.021 -18.519,4.938 -0.111,0.015 -0.028,0.016 -20.888,3.705 -0.037,0.003 -0.01,0.004 -24.697,3.808 -0.05,0.004 -0.01,0.004 -28.713,3.499 -0.034,0.002 v 0.002 l -31.185,3.191 -0.063,0.003 v 0.002 l -32.938,2.047 -0.016,0.001 h -10e-4 l -36.439,1.956 -0.019,10e-4 h -10e-4 l -38.19,1.635 -0.004,0.001 v 0 l -39.115,1.647 h -0.004 v 0 l -41.793,1.738 h -10e-4 l -43.848,1.956 h -0.012 -10e-4 l -45.396,1.739 h -0.009 v 0 l -45.396,1.532 -0.006,0.001 v 0 l -45.087,1.429 h -0.018 l -10e-4,0.001 -44.573,0.926 h -0.029 v 0 l -44.265,0.092 h -0.004 -0.022 l -42.002,-0.63 v 0 h -0.021 l -41.076,-1.247 h -10e-4 l -0.011,-0.001 -38.915,-1.556 h -0.001 l -0.026,-0.001 -37.064,-2.277 h -0.001 l -0.014,-10e-4 -35.623,-2.688 v 0 h -10e-4 l -33.559,-2.688 -32.212,-2.264 -0.003,-0.002 -0.023,-10e-4 -30.474,-2.803 v 0 l -29.02,-2.481 h -0.001 l -0.005,-0.001 -27.798,-2.597 v 0 l -26.744,-2.389 -25.202,-1.76 -24.251,-1.439 -22.496,-0.217 -20.538,0.308 -18.984,1.334 -16.604,1.845 -14.913,2.77 -12.934,3.894 -11.406,4.787 -10.153,5.483 -8.198,6.073 -6.967,6.579 -5.22,6.607 -3.608,7.116 -2.508,7.123 -1.078,6.244 0.186,6.124 1.083,4.922 1.766,4.413 1.938,3.003 1.895,2.176 7.005,6.278 7.133,4.869 L 0.915,0 0.647,0.647 0,0.915 -0.479,0.779 -7.902,-3.781 -7.944,-3.855 -8.061,-3.9 l -7.089,-6.386 -2.294,-1.999 -0.089,-0.196 -0.151,-0.082 -2.056,-3.186 -0.039,-0.13 -0.081,-0.101 -1.85,-4.624 -0.03,-0.157 -0.036,-0.059 -1.131,-5.138 -0.026,-0.235 -0.006,-0.013 -0.217,-6.379 -0.001,-0.048 0.02,-0.232 1.145,-6.491 0.027,-0.047 0.027,-0.155 2.576,-7.318 0.043,-0.056 0.022,-0.093 3.71,-7.317 0.079,-0.048 0.057,-0.163 5.346,-6.804 0.089,-0.044 0.044,-0.101 7.11,-6.683 0.087,-0.034 0.032,-0.065 8.335,-6.174 0.126,-0.042 0.037,-0.062 10.287,-5.555 0.075,-0.019 0.049,-0.04 11.521,-4.836 0.098,-0.02 0.045,-0.031 13.071,-3.887 0.113,-0.017 0.031,-0.018 15.024,-2.767 0.086,-0.008 0.013,-0.006 16.671,-1.853 0.053,-0.003 0.005,-0.002 19.04,-1.338 0.074,-0.003 h 0.001 l 20.588,-0.309 h 0.02 0.012 l 22.545,0.194 h 0.001 l 0.064,0.002 24.298,1.442 h 0.001 0.008 l 25.226,1.739 0.002,0.001 0.018,0.001 26.773,2.345 v 0 0 l 27.803,2.55 v 0 l 29.021,2.459 v 0 h 0.003 l 30.463,2.755 32.208,2.264 h 0.001 l 0.007,0.001 33.566,2.665 v 0 l 35.602,2.664 37.033,2.251 38.891,1.532 41.056,1.223 41.977,0.606 44.24,-0.115 44.553,-0.926 45.078,-1.452 h 10e-4 l 45.393,-1.556 h 10e-4 l 45.39,-1.761 10e-4,-0.001 43.844,-1.955 h 0.007 v 0 l 41.792,-1.762 h 0.003 v 0 l 39.115,-1.647 h 0.001 l 38.187,-1.659 36.427,-1.955 h 10e-4 l 32.902,-2.068 31.151,-3.187 28.681,-3.495 24.669,-3.804 h 10e-4 l 20.81,-3.69 18.416,-4.912 13.959,-4.789 10.066,-4.933 6.799,-5.236 4.105,-5.571 2.56,-5.406 -0.093,-6.163 -2.244,-6.016 -3.132,-5.579 -5.053,-5.152 -5.697,-4.812 -7.524,-4.313 -7.935,-3.428 -9.468,-2.417 -9.484,-1.222 -11.364,-0.011 -10.269,0.903 -11.176,1.931 -9.171,2.722 -7.782,3.691 -4.885,3.713 -2.148,2.578 -0.131,2.07 1.644,2.367 3.097,2.52 4.572,2.212 5.661,1.665 5.701,0.966 6.039,0.413 h 6.047 l 4.94,-0.447 3.972,-0.564 0.01,-0.001 v -0.001 l 2.688,-0.375 0.051,-0.004 0.01,-0.003 1.656,-0.17 0.13,-0.007 0.869,0.36 0.359,0.869 -0.253,0.747 -0.649,0.437 -1.6,0.441 -0.036,0.005 -0.01,0.007 -2.633,0.648 -0.101,0.012 -0.023,0.014 -3.998,0.662 -0.077,0.006 -0.011,0.006 -5.03,0.572 -0.19,0.011 h -6.176 l -0.105,-0.004 -6.182,-0.4 -0.016,-0.008 -0.164,-0.014 -5.871,-1.066 -0.038,-0.022 -0.129,-0.019 -5.872,-1.775 -0.081,-0.058 -0.149,-0.034 -4.837,-2.393 -0.153,-0.139 -0.134,-0.048 -3.392,-2.791 -0.102,-0.217 -0.186,-0.098 -2.046,-2.987 -0.269,-0.863 v -0.107 l 0.217,-3.092 0.148,-0.309 0.198,-0.546 2.575,-3.09 0.168,-0.078 0.076,-0.155 5.144,-3.909 0.135,-0.046 0.135,-0.119 8.02,-3.805 0.15,-0.034 0.077,-0.053 9.357,-2.777 0.145,-0.021 0.038,-0.022 11.314,-1.954 0.116,-0.01 0.015,-0.007 10.39,-0.938 0.141,-0.007 v 0 l 11.529,-0.011 v 0 z"
           id="path28" />
      </g>
    </g>
  </g>
</svg>
